<svg width="40" height="40" viewBox="0 0 40 40" fill="none" xmlns="http://www.w3.org/2000/svg">
<path d="M20 6.86253V34.9845M20 6.86253L21.8336 6.17445C26.0061 4.60866 30.6607 4.60866 34.8331 6.17445C35.9406 6.59002 36.6667 7.59626 36.6667 8.71523V31.7997C36.6667 33.3362 35.0126 34.3868 33.492 33.8162C30.1804 32.5735 26.4863 32.5735 23.1748 33.8162L20.0229 34.999C20.0119 35.0031 20 34.9955 20 34.9845M20 6.86253L18.1665 6.17445C13.994 4.60866 9.33941 4.60866 5.16694 6.17445C4.05953 6.59002 3.33337 7.59626 3.33337 8.71523V16.153M20 34.9845C20 34.9955 19.9881 35.0031 19.9772 34.999L16.8253 33.8162C13.5138 32.5735 9.81963 32.5735 6.50812 33.8162C4.98749 34.3868 3.33337 33.3362 3.33337 31.7997V22.6952" stroke="#FDFDFD" stroke-width="1.5" stroke-linecap="round"/>
</svg>
