<svg width="40" height="40" viewBox="0 0 40 40" fill="none" xmlns="http://www.w3.org/2000/svg">
<path d="M20 11.4645C20.4143 11.4645 20.75 11.1287 20.75 10.7145C20.75 10.3003 20.4143 9.96452 20 9.96452V11.4645ZM21.1494 23.9411L20.9339 23.2227L21.1494 23.9411ZM18.8507 23.9411L19.0662 23.2227L18.8507 23.9411ZM4.75868 19.7135L4.54317 20.4319L4.75868 19.7135ZM35.9167 12.7145V17.7978H37.4167V12.7145H35.9167ZM4.08337 17.7978V12.7145H2.58337V17.7978H4.08337ZM35.0259 18.9951L20.9339 23.2227L21.3649 24.6594L35.4569 20.4319L35.0259 18.9951ZM19.0662 23.2227L4.97419 18.9951L4.54317 20.4319L18.6351 24.6594L19.0662 23.2227ZM5.33337 11.4645H20V9.96452H5.33337V11.4645ZM28.3334 11.4645H34.6667V9.96452H28.3334V11.4645ZM24.3034 11.4645H28.3334V9.96452H24.3034V11.4645ZM20.9339 23.2227C20.3247 23.4054 19.6753 23.4054 19.0662 23.2227L18.6351 24.6594C19.5255 24.9265 20.4746 24.9265 21.3649 24.6594L20.9339 23.2227ZM2.58337 17.7978C2.58337 19.0123 3.37996 20.0829 4.54317 20.4319L4.97419 18.9951C4.44546 18.8365 4.08337 18.3499 4.08337 17.7978H2.58337ZM35.9167 17.7978C35.9167 18.3498 35.5546 18.8365 35.0259 18.9951L35.4569 20.4319C36.6201 20.0829 37.4167 19.0123 37.4167 17.7978H35.9167ZM37.4167 12.7145C37.4167 11.1957 36.1855 9.96452 34.6667 9.96452V11.4645C35.3571 11.4645 35.9167 12.0242 35.9167 12.7145H37.4167ZM4.08337 12.7145C4.08337 12.0242 4.64302 11.4645 5.33337 11.4645V9.96452C3.81459 9.96452 2.58337 11.1957 2.58337 12.7145H4.08337Z" fill="#FDFDFD"/>
<path d="M20 19.2862L20 16.429" stroke="#FDFDFD" stroke-width="1.5" stroke-linecap="round" stroke-linejoin="round"/>
<path d="M5.47229 25.8333C5.47229 25.4191 5.1365 25.0833 4.72229 25.0833C4.30808 25.0833 3.97229 25.4191 3.97229 25.8333H5.47229ZM34.5278 19.2855V30.9997H36.0278V19.2855H34.5278ZM31.2778 34.2497H8.72229V35.7497H31.2778V34.2497ZM5.47229 30.9997V25.8333H3.97229V30.9997H5.47229ZM8.72229 34.2497C6.92737 34.2497 5.47229 32.7946 5.47229 30.9997H3.97229C3.97229 33.623 6.09894 35.7497 8.72229 35.7497V34.2497ZM34.5278 30.9997C34.5278 32.7946 33.0728 34.2497 31.2778 34.2497V35.7497C33.9012 35.7497 36.0278 33.623 36.0278 30.9997H34.5278Z" fill="#FDFDFD"/>
<path d="M25.5556 10.7143V7C25.5556 5.89543 24.6601 5 23.5556 5H16.4445C15.3399 5 14.4445 5.89543 14.4445 7L14.4445 10.7143" stroke="#FDFDFD" stroke-width="1.5"/>
</svg>
