<svg width="40" height="40" viewBox="0 0 40 40" fill="none" xmlns="http://www.w3.org/2000/svg">
<path d="M5.33428 21.3074C4.88857 20.4923 4.88857 19.5074 5.3343 18.6924C8.16667 13.5134 13.6723 10 19.9999 10C26.3277 10 31.8334 13.5135 34.6657 18.6926C35.1114 19.5077 35.1114 20.4926 34.6657 21.3076C31.8333 26.4866 26.3277 30 20.0001 30C13.6723 30 8.16661 26.4865 5.33428 21.3074Z" stroke="#FDFDFD" stroke-width="1.5"/>
<path d="M15 20C15 22.7614 17.2386 25 20 25C22.7614 25 25 22.7614 25 20C25 17.2386 22.7614 15 20 15" stroke="#FDFDFD" stroke-width="1.5" stroke-linecap="round"/>
</svg>
