<svg width="40" height="40" viewBox="0 0 40 40" fill="none" xmlns="http://www.w3.org/2000/svg">
<path d="M14.6808 14.007C14.6808 17.1405 17.221 19.6808 20.3546 19.6808C23.4881 19.6808 26.0283 17.1405 26.0283 14.007C26.0283 10.8735 23.4881 8.33324 20.3546 8.33324" stroke="#FDFDFD" stroke-width="1.5" stroke-linecap="round"/>
<path d="M10.4255 28.0989C10.4255 26.8786 11.1927 25.79 12.342 25.3795V25.3795C17.5235 23.529 23.1858 23.529 28.3673 25.3795V25.3795C29.5165 25.79 30.2837 26.8786 30.2837 28.0989V30.8501C30.2837 32.0672 29.2057 33.0022 28.0008 32.83L24.173 32.2832C21.6403 31.9214 19.069 31.9214 16.5362 32.2832L12.7084 32.83C11.5035 33.0022 10.4255 32.0672 10.4255 30.8501V28.0989Z" stroke="#FDFDFD" stroke-width="1.5"/>
<path d="M28.8653 19.8378C31.3273 19.8378 33.3232 17.8419 33.3232 15.3798C33.3232 12.9178 31.3273 10.9219 28.8653 10.9219" stroke="#FDFDFD" stroke-width="1.5" stroke-linecap="round"/>
<path d="M33.7477 30.0083L34.1845 30.0707C35.4946 30.2579 36.6667 29.2413 36.6667 27.9179V26.4518C36.6667 25.4929 36.0639 24.6376 35.1609 24.3151C34.2602 23.9934 33.3409 23.7429 32.4114 23.5635" stroke="#FDFDFD" stroke-width="1.5" stroke-linecap="round"/>
<path d="M11.1347 19.8378C8.67265 19.8378 6.67676 17.8419 6.67676 15.3798C6.67676 12.9178 8.67265 10.9219 11.1347 10.9219" stroke="#FDFDFD" stroke-width="1.5" stroke-linecap="round"/>
<path d="M6.2523 30.0083L5.8155 30.0707C4.50542 30.2579 3.3333 29.2413 3.3333 27.9179V26.4518C3.3333 25.4929 3.93608 24.6376 4.83908 24.3151C5.73983 23.9934 6.65907 23.7429 7.58862 23.5635" stroke="#FDFDFD" stroke-width="1.5" stroke-linecap="round"/>
</svg>
